<svg id="Layer_1" data-name="Layer 1" xmlns="http://www.w3.org/2000/svg" xmlns:xlink="http://www.w3.org/1999/xlink" width="980" height="980" viewBox="0 0 980 980">
  <defs>
    <style>
      .cls-1 {
        fill: url(#linear-gradient);
      }
    </style>
    <linearGradient id="linear-gradient" x1="48.68" y1="494.42" x2="931.68" y2="494.42" gradientUnits="userSpaceOnUse">
      <stop offset="0" stop-color="#4e8494"/>
      <stop offset="0.15" stop-color="#528692"/>
      <stop offset="0.3" stop-color="#5f8c8a"/>
      <stop offset="0.47" stop-color="#75957f"/>
      <stop offset="0.63" stop-color="#93a36e"/>
      <stop offset="0.8" stop-color="#bab458"/>
      <stop offset="0.97" stop-color="#e9c93f"/>
      <stop offset="1" stop-color="#f1cd3a"/>
    </linearGradient>
  </defs>
  <circle class="cls-1" cx="490.18" cy="494.42" r="441.5"/>
  <path d="M685.58,64.33c-10.7,3.9-16.6,7.6-23.8,15.2a58.55,58.55,0,0,0-15.1,27.4c-1.7,8.2-1,11,7.6,28.6,5.8,11.8,7.3,14,11.1,16.6,4.3,3,17.5,8.9,19.8,8.9.6,0,2.2,1.1,3.5,2.5a7.75,7.75,0,0,0,5.2,2.5c4.8,0,3.6,3.6-3.4,9.9a83.75,83.75,0,0,0-10.9,12.8c-2.6,4-6,8.4-7.7,9.8-4,3.4-9.4,14.6-13.7,29-5.3,17.4-5.3,19-.9,42.4,3.6,19.6,3.7,20.6,2.6,29-1,7.2-1,10.6.4,20.6,1.1,8.8,1.8,26.6,2.4,66.5.5,30,1.3,58.1,1.8,62.5,1,8.6,4.6,18.8,13.7,38.1,2.9,6.1,5.6,12.5,5.9,14.2a36,36,0,0,0,3.8,7.8l3,4.8-2.3,9.3-2.2,9.4,2.6,7.8c3.3,9.7,3.3,12,.2,22-2.3,7-2.5,9.4-2.3,21.3.2,16.6-4.5,48.2-9.7,65.3-10.7,34.6-19.1,77.7-21.5,111-3.7,51.9-4.3,95.2-1.6,113.5,1,6.3,2.1,15.6,2.6,20.7,1.3,13.7,3.4,16.5,17,23.3a67.55,67.55,0,0,1,12.6,8.9c7.1,6.7,24,15.6,32.3,17.1,15.9,2.9,37.8-1.2,50.3-9.5,4.3-2.8,7.2-7.7,6.3-10.5-.7-2.3-6.5-4.6-16-6.4-8.8-1.6-15.3-4.9-24.9-12.6-5.8-4.7-7.8-7-8.6-9.8-1.4-5.2-3.7-19.3-4.5-27.8l-.6-7.1,6.2-.7c10.2-1,15.9-.7,24.8,1.4,7,1.7,9,1.8,11.9.9,2.3-.8,6.6-.9,12.4-.5l8.9.7,2.9-3c3.2-3.1,3.8-6.2,1.8-7.8-1.7-1.2-27-9.3-29.2-9.3-2.6,0-22.6-10.5-28-14.7-4.5-3.5-4.6-3.7-3.1-5.9a12.57,12.57,0,0,0,1.5-5.6,10.94,10.94,0,0,1,2-5.8c2.4-3.1,2.5-6.8.4-12.9-1.8-5.1-1.4-8.6,8.9-80l4.3-29.5,3.1-1.3c3.8-1.5,6.6-5.9,8.8-13.8a89.12,89.12,0,0,1,4-10.5c3.8-7.7,12.5-35.8,15.4-49.7,1-4.8,9.1-74.9,9.1-78.7,0-1.1.9-1.6,2.8-1.6a7,7,0,0,0,4-1.2c1-1,1.7-1,3.2,0a9.3,9.3,0,0,0,3.4,1.2c2.3,0,6.4-4.3,8.1-8.4,1.7-3.9,2.9-4.5,3.9-2,.5,1.4,1.7,1.6,7.1,1.2,7.6-.7,11.7-2.8,15.7-8.4l2.9-4.1-1.7-10.9c-1.5-9.3-2.2-11.3-4.5-13.4a25.93,25.93,0,0,1-4.4-5.9,47.18,47.18,0,0,0-5.4-7.5c-3-3.2-4-5.2-4.5-9.4a51.22,51.22,0,0,0-1.2-6.6c-.6-1.6,7.7-5.4,14.1-6.3,2.5-.3,4.5-1.1,4.5-1.7a89,89,0,0,0-2.5-8.6,54.75,54.75,0,0,1-2.5-9.1c0-.9-1.4-4.3-3-7.5a82.75,82.75,0,0,1-5.1-13.9c-1.1-4.4-5.6-18.6-10-31.6-5.4-15.9-8.6-27.4-10-35.2-1-6.4-3.1-16-4.5-21.4s-4.3-19.6-6.5-31.5c-4.2-23.4-5.8-28.2-18.1-55.5l-6.2-13.8-.2-10.3c-.2-8.3-.6-10.7-2-12.3s-1.6-2.4-.6-5.3c2.1-5.7,1.5-10.2-1.8-13.9-1.6-1.9-3-3.8-3-4.3a10.27,10.27,0,0,0-2.5-3.4l-2.5-2.6,1.9-5.6c1.5-4.5,1.8-7.3,1.4-13.7-.5-7.5-.4-8.4,2-11.9a89.33,89.33,0,0,1,8.2-10c4.4-4.7,5.8-7.1,6.2-10.1.9-6.6-.2-8.7-5.2-10.7-3.9-1.4-4.5-2.1-4.5-4.6,0-2.1-.6-3.1-2.5-3.8-1.5-.6-2.5-1.7-2.5-2.9s-1.3-3-3-4.3c-3.3-2.4-3.6-3.8-1.8-6.7.9-1.5.9-2.5,0-4.5-1.1-2.6-1.3-2.6-12.6-2.6h-11.5l-4.1-5.4c-2.2-3-5.3-5.9-6.8-6.4s-8.1-1.3-14.7-1.6C693.28,62,691.58,62.23,685.58,64.33Zm113.1,452.8c0,3.1-.4,4.8-1,4.4s-1-2.9-1-5.6c0-3.1.4-4.8,1-4.4S798.68,514.43,798.68,517.13Z"/>
  <g>
    <path d="M118.73,489.92a194.56,194.56,0,0,1-21-14.92q-9.49-7.59-16.24-12.25a77.47,77.47,0,0,0-14.63-7.89,42.1,42.1,0,0,0-16.06-3.23,39.33,39.33,0,0,0-4.37.19L74.74,320.15a41.22,41.22,0,0,0-19.66,15.68q-6.94,10.55-6.94,25.74,0,7,1.33,9.79a16.47,16.47,0,0,1,1.33,3.13q-10.26,0-15.29-4.27t-5-14.16q0-12.15,10-23.65A73.94,73.94,0,0,1,66,313.79a74.38,74.38,0,0,1,31.16-7.13c1.77,0,4.31.13,7.6.38L75.5,443.46a63.44,63.44,0,0,1,10.93,3.9Q92,449.92,100,454.29a215.58,215.58,0,0,0,21.09,10.17A48.52,48.52,0,0,0,139.34,468a41.57,41.57,0,0,0,16-3q-1.52,13.88-6.74,21.85t-13,8A32.88,32.88,0,0,1,118.73,489.92Z"/>
    <path d="M106.85,440.8q-8.17-7.21-8.17-22.8,0-12.92,5.32-28.69a67.9,67.9,0,0,1,17.1-27.26q11.78-11.49,29.64-11.5,24.31,0,24.32,30.4v.19a7.53,7.53,0,0,0,2.09.19A39,39,0,0,0,191.59,378a72,72,0,0,0,14.82-8.08l1.71,5.13a45.31,45.31,0,0,1-14.34,10,74.44,74.44,0,0,1-19.29,5.79Q173,408.13,166.7,421T150.55,441a36.25,36.25,0,0,1-21.47,7Q115,448,106.85,440.8Zm39-15.1a46.72,46.72,0,0,0,8-14.25,91.8,91.8,0,0,0,4.94-20.05q-5.13-1.14-5.13-8,0-7.79,5.89-10.26c-.25-4.18-.89-7.06-1.9-8.64s-2.79-2.38-5.32-2.38q-6.27,0-12.16,9.12a80.73,80.73,0,0,0-9.5,21.85A83.45,83.45,0,0,0,127,415.53q0,9.12,2.09,12.26c1.39,2.09,3.93,3.13,7.6,3.13Q141.24,430.92,145.8,425.7Z"/>
    <path d="M190.26,440.8q-8.17-7.21-8.17-22.8,0-12.92,5.32-28.69a67.9,67.9,0,0,1,17.1-27.26q11.78-11.49,29.64-11.5,24.32,0,24.32,30.4v.19a7.53,7.53,0,0,0,2.09.19A39,39,0,0,0,275,378a72,72,0,0,0,14.82-8.08l1.71,5.13a45.31,45.31,0,0,1-14.34,10,74.44,74.44,0,0,1-19.29,5.79q-1.51,17.3-7.79,30.21T234,441a36.25,36.25,0,0,1-21.47,7Q198.44,448,190.26,440.8Zm39-15.1a46.72,46.72,0,0,0,8-14.25,91.8,91.8,0,0,0,4.94-20.05q-5.13-1.14-5.13-8,0-7.79,5.89-10.26c-.25-4.18-.89-7.06-1.9-8.64s-2.79-2.38-5.32-2.38q-6.27,0-12.16,9.12a80.73,80.73,0,0,0-9.5,21.85,83.45,83.45,0,0,0-3.61,22.42q0,9.12,2.09,12.26c1.39,2.09,3.93,3.13,7.6,3.13Q224.65,430.92,229.21,425.7Z"/>
    <path d="M321.74,442.8q-6.09-5.61-6.08-16.06a47.37,47.37,0,0,1,1.14-9.88l1.52-7.41a31,31,0,0,0,.76-7q0-9.12-6.84-9.12a13.94,13.94,0,0,0-6.37,1.71,45.32,45.32,0,0,0-7.69,5.32l-9.88,46.93H260.94l27.55-129.2,28.12-3.8-14.25,66.88L339,352.26h18.81l-38,26.41a24.6,24.6,0,0,1,6.27-.76q10.26,0,15.58,6.27t5.32,16a31.94,31.94,0,0,1-.76,7.22l-2.09,9.5a22.78,22.78,0,0,0-1,6.08q0,7,7.41,7c2.78,0,4.56-.19,5.32-.57a5.94,5.94,0,0,1,1.33-.57,20,20,0,0,1-3.52,10.64,22.19,22.19,0,0,1-7.22,6.65,14.92,14.92,0,0,1-6.93,2.28Q327.81,448.4,321.74,442.8Z"/>
    <path d="M396.88,439.38q-9.6-9.21-9.59-27.27A85.48,85.48,0,0,1,390,392.16L409.33,315Q393,319.4,383.87,330.51t-9.12,24.41A36.13,36.13,0,0,0,379.69,373q-10.83,0-16.82-5.32t-6-15q0-12.34,10-23.65t26.51-18.15a90.52,90.52,0,0,1,35-6.84A49.56,49.56,0,0,1,439,305l-23.18,87.78a80.48,80.48,0,0,0-3.23,20.52q0,18.06,14.82,18.05,21.27,0,29.45-39.14l19-87.78h26.79l-18.43,87.78q-6.09,27.93-21,42.18t-37.9,14.25Q406.48,448.59,396.88,439.38Z"/>
    <path d="M508.31,345.23h27.36l-3,14.25a33.09,33.09,0,0,1,22.23-8.17q10.65,0,16.91,7t6.27,23a109.7,109.7,0,0,1-4.37,30.31,60.36,60.36,0,0,1-14.82,26q-10.44,10.74-27.55,10.73-12.15,0-16.15-6.84l-9.88,46.36-28.69,6.84Zm32.21,78.09a58.14,58.14,0,0,0,8.74-20.42A98.72,98.72,0,0,0,552,380.76q0-15.76-9.5-15.77a12.08,12.08,0,0,0-6.93,2.47,22.54,22.54,0,0,0-6.18,6.84l-11.21,53.2c1,2.92,3.42,4.37,7.22,4.37Q534.53,431.87,540.52,423.32Z"/>
    <path d="M593.34,443.94a14.64,14.64,0,0,1-4.47-10.74,14.33,14.33,0,0,1,4.47-10.64,14.79,14.79,0,0,1,10.73-4.37,14.92,14.92,0,0,1,15,15,14.83,14.83,0,0,1-4.37,10.74,14.3,14.3,0,0,1-10.64,4.46A14.6,14.6,0,0,1,593.34,443.94Zm22.51-135.57,29.26-4-27.55,99H601.41Z"/>
  </g>
  <g>
    <path d="M244.7,510.21h39.08c20,0,33.77,11.1,33.77,30.45,0,19.72-13.65,31.23-34.85,31.23H253.59v47.38H244.7Zm8.89,53.66H283.4c17.47,0,24.8-9.24,24.8-22.89,0-14.58-9.63-22.75-24.18-22.75H253.59Z"/>
    <path d="M397.07,580.12c0,21.72-12.06,41-35.33,41-21.13,0-34.25-17.31-34.25-40.86,0-22.34,12.37-40.87,35-40.87C383.32,539.41,397.07,555.63,397.07,580.12Zm-61,.16c0,18.48,9.91,33.31,26.3,33.31,16.71,0,26.14-13.77,26.14-33.31,0-18.36-9.28-33.32-26.45-33.32C344.44,547,336.06,561.61,336.06,580.28Z"/>
    <path d="M416.92,504.43H425v15.22h-8.11Zm0,36.85H425v78h-8.11Z"/>
    <path d="M450.43,560.93c0-6.85,0-13.42-.15-19.65h7.94c.31,2.49.47,12.52.32,14.71,3.41-7.89,9.81-16.58,25.82-16.58,13.92,0,26.19,7.86,26.19,29.34v50.52h-8.11V570c0-13.77-5.7-22.75-19.18-22.75-18.35,0-24.72,15.2-24.72,32.13v39.86h-8.11Z"/>
    <path d="M523.92,541.28h14.45V517h8.11v24.26H565v7.53H546.48v50.42c0,8.67,1.87,13.6,9.33,13.6a29.31,29.31,0,0,0,8-.92v7c-2.69,1.1-6.48,1.41-9.78,1.41-10.1,0-15.7-5.06-15.7-17.57v-54H523.92Z"/>
    <path d="M583.89,597.7c2.63,10,9.75,16.08,22,16.08,13.75,0,19.3-6.32,19.3-15,0-8.81-3.73-13.12-21.06-17.3-20.24-4.87-25.21-11-25.21-21.3,0-10.78,8.11-20.81,25.87-20.81s26.17,10.81,27.4,21.88h-8.08c-1.39-6.47-6.46-14.52-19.65-14.52-13.43,0-17.29,6.62-17.29,12.8,0,7.1,3.72,10.65,19.09,14.38,22.09,5.32,27.51,12.53,27.51,24.22,0,14.17-11.51,23-28,23-17.91,0-27.89-9.41-30.07-23.44Z"/>
  </g>
  <circle cx="420.6" cy="511.71" r="9.08"/>
</svg>
